<svg width="32" height="32" viewBox="0 0 32 32" fill="none" xmlns="http://www.w3.org/2000/svg">
<path d="M11.9998 6.66669H9.33317C8.62593 6.66669 7.94765 6.94764 7.44755 7.44774C6.94746 7.94783 6.6665 8.62611 6.6665 9.33335V25.3334C6.6665 26.0406 6.94746 26.7189 7.44755 27.219C7.94765 27.7191 8.62593 28 9.33317 28H22.6665C23.3737 28 24.052 27.7191 24.5521 27.219C25.0522 26.7189 25.3332 26.0406 25.3332 25.3334V9.33335C25.3332 8.62611 25.0522 7.94783 24.5521 7.44774C24.052 6.94764 23.3737 6.66669 22.6665 6.66669H19.9998" fill="#FDFFFC"/>
<path d="M11.9998 6.66669H9.33317C8.62593 6.66669 7.94765 6.94764 7.44755 7.44774C6.94746 7.94783 6.6665 8.62611 6.6665 9.33335V25.3334C6.6665 26.0406 6.94746 26.7189 7.44755 27.219C7.94765 27.7191 8.62593 28 9.33317 28H22.6665C23.3737 28 24.052 27.7191 24.5521 27.219C25.0522 26.7189 25.3332 26.0406 25.3332 25.3334V9.33335C25.3332 8.62611 25.0522 7.94783 24.5521 7.44774C24.052 6.94764 23.3737 6.66669 22.6665 6.66669H19.9998" stroke="#FDFFFC" stroke-width="2" stroke-linecap="round" stroke-linejoin="round"/>
<path d="M12 6.66667C12 5.95942 12.281 5.28115 12.781 4.78105C13.2811 4.28095 13.9594 4 14.6667 4H17.3333C18.0406 4 18.7189 4.28095 19.219 4.78105C19.719 5.28115 20 5.95942 20 6.66667C20 7.37391 19.719 8.05219 19.219 8.55229C18.7189 9.05238 18.0406 9.33333 17.3333 9.33333H14.6667C13.9594 9.33333 13.2811 9.05238 12.781 8.55229C12.281 8.05219 12 7.37391 12 6.66667Z" fill="#FDFFFC" stroke="#18315C" stroke-width="2" stroke-linecap="round" stroke-linejoin="round"/>
<path d="M12 18.6667L14.6667 21.3333L20 16" stroke="#18315C" stroke-width="2" stroke-linecap="round" stroke-linejoin="round"/>
</svg>
