<svg width="46" height="58" viewBox="0 0 46 58" fill="none" xmlns="http://www.w3.org/2000/svg">
<path d="M37.1668 0.666504C39.4212 0.666504 41.5832 1.56204 43.1772 3.1561C44.7713 4.75016 45.6668 6.91216 45.6668 9.1665V54.4998C45.6669 55.0128 45.5277 55.5161 45.2641 55.9562C45.0006 56.3962 44.6224 56.7565 44.1702 56.9985C43.7179 57.2405 43.2084 57.3551 42.696 57.3303C42.1837 57.3054 41.6877 57.1419 41.261 56.8572L34.6933 52.4797L30.67 56.503C30.1821 56.9908 29.533 57.2839 28.8444 57.3272C28.1559 57.3705 27.4751 57.161 26.93 56.7382L26.6637 56.503L23.0002 52.8423L19.3367 56.503C18.8488 56.9908 18.1997 57.2839 17.5111 57.3272C16.8225 57.3705 16.1418 57.161 15.5967 56.7382L15.3303 56.503L11.3042 52.4797L4.73933 56.8572L4.6855 56.8912L4.5325 56.9762L4.45316 57.0243L4.30016 57.0895L4.1585 57.1547L4.01966 57.1972L3.84966 57.251L3.70233 57.2765L3.54083 57.3077L3.30283 57.3247L3.22916 57.3332H3.16683L3.028 57.3247H2.9175L2.88066 57.3162H2.83533L2.71916 57.2935L2.6115 57.2793L2.569 57.2652L2.518 57.2595L2.42166 57.2283L2.30833 57.2L2.2545 57.1802L2.212 57.1688L2.12983 57.132L2.0165 57.0895L1.957 57.0583L1.92016 57.0442L1.84083 56.9988L1.73883 56.9478L1.69916 56.9195L1.64816 56.8912L1.5405 56.8147L1.47816 56.775L1.44983 56.7495L1.39316 56.7098L1.26566 56.5937L1.23166 56.571L1.16366 56.503L1.0645 56.3925L1.00783 56.3358L0.987996 56.3047L0.956829 56.2707L0.866163 56.1432L0.809497 56.0723L0.775496 56.0185L0.690496 55.8655L0.64233 55.7862L0.577163 55.6332L0.511997 55.4915C0.474132 55.3914 0.441968 55.2892 0.415662 55.1855L0.38733 55.024L0.358996 54.8738L0.333496 54.4998V9.1665C0.333496 6.91216 1.22903 4.75016 2.82309 3.1561C4.41715 1.56204 6.57916 0.666504 8.8335 0.666504H37.1668ZM31.5002 34.6665H25.8335C25.082 34.6665 24.3614 34.965 23.83 35.4964C23.2987 36.0277 23.0002 36.7484 23.0002 37.4998C23.0002 38.2513 23.2987 38.972 23.83 39.5033C24.3614 40.0347 25.082 40.3332 25.8335 40.3332H31.5002C32.2516 40.3332 32.9723 40.0347 33.5036 39.5033C34.035 38.972 34.3335 38.2513 34.3335 37.4998C34.3335 36.7484 34.035 36.0277 33.5036 35.4964C32.9723 34.965 32.2516 34.6665 31.5002 34.6665ZM31.5002 23.3332H14.5002C13.7487 23.3332 13.028 23.6317 12.4967 24.163C11.9653 24.6944 11.6668 25.4151 11.6668 26.1665C11.6668 26.918 11.9653 27.6386 12.4967 28.17C13.028 28.7013 13.7487 28.9998 14.5002 28.9998H31.5002C32.2516 28.9998 32.9723 28.7013 33.5036 28.17C34.035 27.6386 34.3335 26.918 34.3335 26.1665C34.3335 25.4151 34.035 24.6944 33.5036 24.163C32.9723 23.6317 32.2516 23.3332 31.5002 23.3332ZM31.5002 11.9998H14.5002C13.7487 11.9998 13.028 12.2983 12.4967 12.8297C11.9653 13.3611 11.6668 14.0817 11.6668 14.8332C11.6668 15.5846 11.9653 16.3053 12.4967 16.8366C13.028 17.368 13.7487 17.6665 14.5002 17.6665H31.5002C32.2516 17.6665 32.9723 17.368 33.5036 16.8366C34.035 16.3053 34.3335 15.5846 34.3335 14.8332C34.3335 14.0817 34.035 13.3611 33.5036 12.8297C32.9723 12.2983 32.2516 11.9998 31.5002 11.9998Z" fill="#FDFFFC"/>
</svg>
