<svg width="52" height="58" viewBox="0 0 52 58" fill="none" xmlns="http://www.w3.org/2000/svg">
<path d="M43 0.666504C45.2543 0.666504 47.4163 1.56204 49.0104 3.1561C50.6045 4.75016 51.5 6.91216 51.5 9.1665V48.8332C51.5 51.0875 50.6045 53.2495 49.0104 54.8436C47.4163 56.4376 45.2543 57.3332 43 57.3332H9C6.74566 57.3332 4.58365 56.4376 2.98959 54.8436C1.39553 53.2495 0.5 51.0875 0.5 48.8332V9.1665C0.5 6.91216 1.39553 4.75016 2.98959 3.1561C4.58365 1.56204 6.74566 0.666504 9 0.666504H43ZM14.6667 43.1665C13.9152 43.1665 13.1946 43.465 12.6632 43.9964C12.1318 44.5277 11.8333 45.2484 11.8333 45.9998L11.8532 46.3597C11.9385 47.0768 12.2944 47.7342 12.8481 48.1978C13.4019 48.6613 14.1118 48.8958 14.8327 48.8535C15.5536 48.8112 16.2312 48.4952 16.7269 47.97C17.2227 47.4449 17.4992 46.7503 17.5 46.0282L17.4802 45.6683C17.399 44.9791 17.0677 44.3437 16.5491 43.8825C16.0305 43.4214 15.3606 43.1666 14.6667 43.1665ZM26 43.1665C25.2486 43.1665 24.5279 43.465 23.9965 43.9964C23.4652 44.5277 23.1667 45.2484 23.1667 45.9998L23.1865 46.3597C23.2718 47.0768 23.6277 47.7342 24.1815 48.1978C24.7353 48.6613 25.4451 48.8958 26.166 48.8535C26.887 48.8112 27.5645 48.4952 28.0603 47.97C28.556 47.4449 28.8325 46.7503 28.8333 46.0282L28.8135 45.6683C28.7323 44.9791 28.401 44.3437 27.8824 43.8825C27.3638 43.4214 26.694 43.1666 26 43.1665ZM37.3333 43.1665C36.5819 43.1665 35.8612 43.465 35.3299 43.9964C34.7985 44.5277 34.5 45.2484 34.5 45.9998L34.5198 46.3597C34.6051 47.0768 34.961 47.7342 35.5148 48.1978C36.0686 48.6613 36.7785 48.8958 37.4994 48.8535C38.2203 48.8112 38.8979 48.4952 39.3936 47.97C39.8893 47.4449 40.1659 46.7503 40.1667 46.0282L40.1468 45.6683C40.0656 44.9791 39.7343 44.3437 39.2157 43.8825C38.6971 43.4214 38.0273 43.1666 37.3333 43.1665ZM14.6667 31.8332C13.9152 31.8332 13.1946 32.1317 12.6632 32.663C12.1318 33.1944 11.8333 33.9151 11.8333 34.6665L11.8532 35.0263C11.9385 35.7434 12.2944 36.4009 12.8481 36.8644C13.4019 37.3279 14.1118 37.5625 14.8327 37.5202C15.5536 37.4778 16.2312 37.1618 16.7269 36.6367C17.2227 36.1116 17.4992 35.417 17.5 34.6948L17.4802 34.335C17.399 33.6458 17.0677 33.0103 16.5491 32.5492C16.0305 32.088 15.3606 31.8333 14.6667 31.8332ZM26 31.8332C25.2486 31.8332 24.5279 32.1317 23.9965 32.663C23.4652 33.1944 23.1667 33.9151 23.1667 34.6665L23.1865 35.0263C23.2718 35.7434 23.6277 36.4009 24.1815 36.8644C24.7353 37.3279 25.4451 37.5625 26.166 37.5202C26.887 37.4778 27.5645 37.1618 28.0603 36.6367C28.556 36.1116 28.8325 35.417 28.8333 34.6948L28.8135 34.335C28.7323 33.6458 28.401 33.0103 27.8824 32.5492C27.3638 32.088 26.694 31.8333 26 31.8332ZM37.3333 31.8332C36.5819 31.8332 35.8612 32.1317 35.3299 32.663C34.7985 33.1944 34.5 33.9151 34.5 34.6665L34.5198 35.0263C34.6051 35.7434 34.961 36.4009 35.5148 36.8644C36.0686 37.3279 36.7785 37.5625 37.4994 37.5202C38.2203 37.4778 38.8979 37.1618 39.3936 36.6367C39.8893 36.1116 40.1659 35.417 40.1667 34.6948L40.1468 34.335C40.0656 33.6458 39.7343 33.0103 39.2157 32.5492C38.6971 32.088 38.0273 31.8333 37.3333 31.8332ZM34.5 11.9998H17.5C15.9971 11.9998 14.5558 12.5969 13.4931 13.6596C12.4304 14.7223 11.8333 16.1636 11.8333 17.6665V20.4998C11.8333 22.0027 12.4304 23.4441 13.4931 24.5068C14.5558 25.5695 15.9971 26.1665 17.5 26.1665H34.5C36.0029 26.1665 37.4442 25.5695 38.5069 24.5068C39.5696 23.4441 40.1667 22.0027 40.1667 20.4998V17.6665C40.1667 16.1636 39.5696 14.7223 38.5069 13.6596C37.4442 12.5969 36.0029 11.9998 34.5 11.9998Z" fill="#FDFFFC"/>
</svg>
