<svg width="32" height="32" viewBox="0 0 32 32" fill="none" xmlns="http://www.w3.org/2000/svg">
<path d="M13.3335 17.3333C13.3335 18.0406 13.6144 18.7189 14.1145 19.219C14.6146 19.719 15.2929 20 16.0002 20C16.7074 20 17.3857 19.719 17.8858 19.219C18.3859 18.7189 18.6668 18.0406 18.6668 17.3333C18.6668 16.6261 18.3859 15.9478 17.8858 15.4477C17.3857 14.9476 16.7074 14.6667 16.0002 14.6667C15.2929 14.6667 14.6146 14.9476 14.1145 15.4477C13.6144 15.9478 13.3335 16.6261 13.3335 17.3333Z" fill="#FDFFFC" stroke="#FDFFFC" stroke-width="2" stroke-linecap="round" stroke-linejoin="round"/>
<path d="M10.6665 28V26.6667C10.6665 25.9594 10.9475 25.2811 11.4476 24.781C11.9477 24.281 12.6259 24 13.3332 24H18.6665C19.3737 24 20.052 24.281 20.5521 24.781C21.0522 25.2811 21.3332 25.9594 21.3332 26.6667V28" stroke="#FDFFFC" stroke-width="2" stroke-linecap="round" stroke-linejoin="round"/>
<path d="M20 6.66667C20 7.37391 20.281 8.05219 20.781 8.55229C21.2811 9.05238 21.9594 9.33333 22.6667 9.33333C23.3739 9.33333 24.0522 9.05238 24.5523 8.55229C25.0524 8.05219 25.3333 7.37391 25.3333 6.66667C25.3333 5.95942 25.0524 5.28115 24.5523 4.78105C24.0522 4.28095 23.3739 4 22.6667 4C21.9594 4 21.2811 4.28095 20.781 4.78105C20.281 5.28115 20 5.95942 20 6.66667Z" fill="#FDFFFC" stroke="#FDFFFC" stroke-width="2" stroke-linecap="round" stroke-linejoin="round"/>
<path d="M23 13.3333H25.3334C26.0407 13.3333 26.7189 13.6143 27.219 14.1144C27.7191 14.6145 28.0001 15.2928 28.0001 16L28 17" stroke="#FDFFFC" stroke-width="2" stroke-linecap="round" stroke-linejoin="round"/>
<path d="M6.6665 6.66667C6.6665 7.37391 6.94746 8.05219 7.44755 8.55229C7.94765 9.05238 8.62593 9.33333 9.33317 9.33333C10.0404 9.33333 10.7187 9.05238 11.2188 8.55229C11.7189 8.05219 11.9998 7.37391 11.9998 6.66667C11.9998 5.95942 11.7189 5.28115 11.2188 4.78105C10.7187 4.28095 10.0404 4 9.33317 4C8.62593 4 7.94765 4.28095 7.44755 4.78105C6.94746 5.28115 6.6665 5.95942 6.6665 6.66667Z" fill="#FDFFFC" stroke="#FDFFFC" stroke-width="2" stroke-linecap="round" stroke-linejoin="round"/>
<path d="M4 17V16C4 15.2928 4.28095 14.6145 4.78105 14.1144C5.28115 13.6143 5.95942 13.3333 6.66667 13.3333H9" stroke="#FDFFFC" stroke-width="2" stroke-linecap="round" stroke-linejoin="round"/>
<path d="M22 13.5C22 13.2239 22.2239 13 22.5 13H27C27.5523 13 28 13.4477 28 14V18H22V13.5Z" fill="#FDFFFC"/>
<path d="M10 13.5C10 13.2239 9.77614 13 9.5 13H5C4.44772 13 4 13.4477 4 14V18H10V13.5Z" fill="#FDFFFC"/>
<path d="M10 26C10 24.8954 10.8954 24 12 24H20C21.1046 24 22 24.8954 22 26V28C22 28.5523 21.5523 29 21 29H11C10.4477 29 10 28.5523 10 28V26Z" fill="#FDFFFC"/>
</svg>
