<svg width="58" height="58" viewBox="0 0 58 58" fill="none" xmlns="http://www.w3.org/2000/svg">
<path d="M29.0284 0.697754C31.2321 0.697888 33.3603 1.50064 35.0152 2.95592L35.4515 3.36675L37.4292 5.34442C37.9719 5.88364 38.6807 6.22404 39.4409 6.31059L39.8234 6.33325H42.6567C44.9721 6.33312 47.1999 7.21887 48.8831 8.80885C50.5664 10.3988 51.5775 12.5726 51.7092 14.8843L51.7234 15.3999V18.2333C51.7234 18.9983 51.984 19.7434 52.4544 20.3384L52.7094 20.6218L54.6842 22.5994C56.3211 24.227 57.2755 26.4177 57.3529 28.7247C57.4303 31.0318 56.6248 33.2814 55.1007 35.0151L54.6899 35.4514L52.7122 37.4291C52.173 37.9718 51.8326 38.6806 51.746 39.4408L51.7234 39.8232V42.6566C51.7235 44.972 50.8377 47.1998 49.2478 48.883C47.6578 50.5663 45.4841 51.5774 43.1724 51.7091L42.6567 51.7233H39.8234C39.0594 51.7235 38.3179 51.981 37.7182 52.4543L37.4349 52.7092L35.4572 54.6841C33.8296 56.321 31.6389 57.2754 29.3319 57.3528C27.0249 57.4302 24.7752 56.6247 23.0415 55.1006L22.6052 54.6897L20.6275 52.7121C20.0848 52.1729 19.376 51.8325 18.6159 51.7459L18.2334 51.7233H15.4C13.0846 51.7234 10.8568 50.8376 9.17358 49.2477C7.49035 47.6577 6.47922 45.484 6.34753 43.1723L6.33336 42.6566V39.8232C6.33311 39.0593 6.0756 38.3178 5.60236 37.7181L5.34736 37.4347L3.37253 35.4571C1.73566 33.8295 0.781225 31.6388 0.703833 29.3318C0.62644 27.0248 1.43192 24.7751 2.95603 23.0414L3.36686 22.6051L5.34453 20.6274C5.88374 20.0847 6.22415 19.3759 6.31069 18.6158L6.33336 18.2333V15.3999L6.34753 14.8843C6.47404 12.6613 7.41407 10.5627 8.98844 8.98834C10.5628 7.41396 12.6615 6.47393 14.8844 6.34742L15.4 6.33325H18.2334C18.9973 6.333 19.7389 6.0755 20.3385 5.60225L20.6219 5.34725L22.5995 3.37242C23.442 2.52494 24.4437 1.85235 25.5469 1.39334C26.6502 0.934319 27.8334 0.697927 29.0284 0.697754ZM39.5032 21.3301C38.9719 20.7989 38.2513 20.5005 37.5 20.5005C36.7487 20.5005 36.0282 20.7989 35.4969 21.3301L26.1667 30.6574L22.5032 26.9968L22.2369 26.7616C21.6674 26.3213 20.9517 26.1142 20.235 26.1825C19.5184 26.2507 18.8547 26.5892 18.3786 27.1291C17.9025 27.6691 17.6497 28.37 17.6717 29.0895C17.6937 29.809 17.9887 30.4932 18.4969 31.0031L24.1635 36.6698L24.4299 36.9049C24.975 37.3278 25.6557 37.5372 26.3443 37.4939C27.0329 37.4506 27.682 37.1576 28.1699 36.6698L39.5032 25.3364L39.7384 25.0701C40.1612 24.5249 40.3707 23.8442 40.3274 23.1557C40.2841 22.4671 39.991 21.818 39.5032 21.3301Z" fill="#FDFFFC"/>
</svg>
