<svg width="44" height="56" viewBox="0 0 44 56" fill="none" xmlns="http://www.w3.org/2000/svg">
<path d="M0.416748 55.7495V6.41618C0.416748 4.78068 1.06645 3.21216 2.22292 2.05569C3.3794 0.899212 4.94791 0.249512 6.58341 0.249512H37.4167C39.0522 0.249512 40.6208 0.899212 41.7772 2.05569C42.9337 3.21216 43.5834 4.78068 43.5834 6.41618V55.7495L34.3334 49.5828L28.1667 55.7495L22.0001 49.5828L15.8334 55.7495L9.66675 49.5828L0.416748 55.7495Z" fill="#FE5A1D"/>
<path d="M28.1666 15.6665H20.4583C19.2316 15.6665 18.0552 16.1538 17.1879 17.0211C16.3205 17.8885 15.8333 19.0649 15.8333 20.2915C15.8333 21.5181 16.3205 22.6945 17.1879 23.5619C18.0552 24.4292 19.2316 24.9165 20.4583 24.9165H23.5416C24.7682 24.9165 25.9446 25.4038 26.812 26.2711C27.6793 27.1385 28.1666 28.3149 28.1666 29.5415C28.1666 30.7681 27.6793 31.9445 26.812 32.8119C25.9446 33.6792 24.7682 34.1665 23.5416 34.1665H15.8333M21.9999 34.1665V38.7915M21.9999 11.0415V15.6665" stroke="#FDFFFC" stroke-width="4" stroke-linecap="round" stroke-linejoin="round"/>
</svg>
