<svg width="32" height="32" viewBox="0 0 32 32" fill="none" xmlns="http://www.w3.org/2000/svg">
<path d="M16.0002 2.66699L16.1562 2.67633C16.4538 2.71142 16.7309 2.84576 16.9428 3.05767C17.1547 3.26958 17.2891 3.5467 17.3242 3.84433L17.3335 4.00033V9.33366L17.3402 9.53366C17.3879 10.1686 17.6612 10.7654 18.1106 11.2164C18.5601 11.6673 19.1561 11.9425 19.7908 11.9923L20.0002 12.0003H25.3335L25.4895 12.0097C25.7871 12.0448 26.0642 12.1791 26.2761 12.391C26.4881 12.6029 26.6224 12.88 26.6575 13.1777L26.6668 13.3337V25.3337C26.6669 26.3539 26.2771 27.3357 25.5771 28.078C24.8772 28.8203 23.92 29.2671 22.9015 29.327L22.6668 29.3337H9.3335C8.31322 29.3337 7.33148 28.9439 6.58915 28.2439C5.84682 27.544 5.40002 26.5869 5.34016 25.5683L5.3335 25.3337V6.66699C5.33344 5.64671 5.72326 4.66497 6.42321 3.92264C7.12315 3.18032 8.08031 2.73352 9.09883 2.67366L9.3335 2.66699H16.0002Z" fill="#FDFFFC"/>
<path d="M25.3332 9.33369H19.9999L19.9985 3.99902L25.3332 9.33369Z" fill="#FDFFFC"/>
</svg>
