<svg width="58" height="58" viewBox="0 0 58 58" fill="none" xmlns="http://www.w3.org/2000/svg">
<path d="M43.1665 4.46384C47.4737 6.95063 51.0505 10.5274 53.5373 14.8346C56.024 19.1419 57.3332 24.0278 57.3332 29.0014C57.3331 33.975 56.0239 38.8609 53.5371 43.1681C51.0503 47.4753 47.4735 51.0521 43.1662 53.5388C38.8589 56.0255 33.973 57.3346 28.9994 57.3346C24.0258 57.3345 19.1399 56.0252 14.8327 53.5383C10.5255 51.0515 6.94882 47.4746 4.46214 43.1673C1.97545 38.8601 0.666378 33.9741 0.666504 29.0005L0.680671 28.0825C0.839346 23.1893 2.26322 18.4207 4.81348 14.2417C7.36374 10.0626 10.9534 6.61562 15.2324 4.23684C19.5114 1.85806 24.3338 0.628633 29.2294 0.668416C34.125 0.708199 38.9267 2.01584 43.1665 4.46384ZM28.9998 12.0005C28.2484 12.0005 27.5277 12.299 26.9964 12.8304C26.465 13.3617 26.1665 14.0824 26.1665 14.8338C23.9122 14.8338 21.7502 15.7294 20.1561 17.3234C18.562 18.9175 17.6665 21.0795 17.6665 23.3338C17.6665 25.5882 18.562 27.7502 20.1561 29.3442C21.7502 30.9383 23.9122 31.8338 26.1665 31.8338V37.5005C25.6967 37.5255 25.2279 37.436 24.8005 37.2395C24.373 37.0431 23.9998 36.7456 23.7128 36.3728L23.5202 36.0867C23.1325 35.4615 22.5169 35.0116 21.8036 34.8321C21.0902 34.6526 20.335 34.7576 19.6976 35.1248C19.0603 35.4921 18.5907 36.0928 18.3883 36.8C18.1858 37.5072 18.2664 38.2654 18.6128 38.9143C19.336 40.1686 20.3676 41.2173 21.6097 41.961C22.8518 42.7048 24.2633 43.119 25.7103 43.1643H26.1665C26.1659 43.8588 26.4204 44.5293 26.8816 45.0485C27.3428 45.5677 27.9786 45.8994 28.6683 45.9807L28.9998 46.0005C29.7513 46.0005 30.472 45.702 31.0033 45.1706C31.5347 44.6393 31.8332 43.9186 31.8332 43.1672L32.3318 43.153C34.5407 43.0253 36.6128 42.0414 38.1077 40.4103C39.6026 38.7791 40.4026 36.6293 40.3377 34.4177C40.2728 32.2061 39.348 30.107 37.76 28.5664C36.1719 27.0257 34.0457 26.165 31.8332 26.1672V20.5005C32.8475 20.4665 33.7343 20.8972 34.2868 21.6282L34.4795 21.9143C34.8672 22.5395 35.4827 22.9894 36.1961 23.1689C36.9095 23.3484 37.6647 23.2434 38.3021 22.8762C38.9394 22.5089 39.409 21.9082 39.6114 21.201C39.8139 20.4938 39.7333 19.7356 39.3868 19.0867C38.664 17.8319 37.6326 16.7827 36.3905 16.0384C35.1484 15.2941 33.7367 14.8795 32.2893 14.8338H31.8332C31.8332 14.0824 31.5347 13.3617 31.0033 12.8304C30.472 12.299 29.7513 12.0005 28.9998 12.0005ZM31.8332 31.8338C32.5846 31.8338 33.3053 32.1323 33.8366 32.6637C34.368 33.1951 34.6665 33.9157 34.6665 34.6672C34.6665 35.4186 34.368 36.1393 33.8366 36.6706C33.3053 37.202 32.5846 37.5005 31.8332 37.5005V31.8338ZM26.1665 20.5005V26.1672C25.4151 26.1672 24.6944 25.8687 24.163 25.3373C23.6317 24.806 23.3332 24.0853 23.3332 23.3338C23.3332 22.5824 23.6317 21.8617 24.163 21.3304C24.6944 20.799 25.4151 20.5005 26.1665 20.5005Z" fill="#FDFFFC"/>
</svg>
