<svg width="32" height="32" viewBox="0 0 32 32" fill="none" xmlns="http://www.w3.org/2000/svg">
<path d="M10.6665 9.33333C10.6665 10.7478 11.2284 12.1044 12.2286 13.1046C13.2288 14.1048 14.5853 14.6667 15.9998 14.6667C17.4143 14.6667 18.7709 14.1048 19.7711 13.1046C20.7713 12.1044 21.3332 10.7478 21.3332 9.33333C21.3332 7.91885 20.7713 6.56229 19.7711 5.5621C18.7709 4.5619 17.4143 4 15.9998 4C14.5853 4 13.2288 4.5619 12.2286 5.5621C11.2284 6.56229 10.6665 7.91885 10.6665 9.33333Z" fill="#FDFFFC" stroke="#FDFFFC" stroke-width="2" stroke-linecap="round" stroke-linejoin="round"/>
<path d="M8 28V25.3333C8 23.9188 8.5619 22.5623 9.5621 21.5621C10.5623 20.5619 11.9188 20 13.3333 20H17" stroke="#FDFFFC" stroke-width="2" stroke-linecap="round" stroke-linejoin="round"/>
<path d="M22.668 25.3333C22.668 26.0406 22.9489 26.7189 23.449 27.2189C23.9491 27.719 24.6274 28 25.3346 28C26.0419 28 26.7202 27.719 27.2203 27.2189C27.7204 26.7189 28.0013 26.0406 28.0013 25.3333C28.0013 24.6261 27.7204 23.9478 27.2203 23.4477C26.7202 22.9476 26.0419 22.6667 25.3346 22.6667C24.6274 22.6667 23.9491 22.9476 23.449 23.4477C22.9489 23.9478 22.668 24.6261 22.668 25.3333Z" stroke="#FDFFFC" stroke-width="2" stroke-linecap="round" stroke-linejoin="round"/>
<path d="M25.3345 20.6667V22.6667" stroke="#FDFFFC" stroke-width="2" stroke-linecap="round" stroke-linejoin="round"/>
<path d="M25.3345 28V30" stroke="#FDFFFC" stroke-width="2" stroke-linecap="round" stroke-linejoin="round"/>
<path d="M29.376 23L27.644 24" stroke="#FDFFFC" stroke-width="2" stroke-linecap="round" stroke-linejoin="round"/>
<path d="M23.0268 26.6667L21.2935 27.6667" stroke="#FDFFFC" stroke-width="2" stroke-linecap="round" stroke-linejoin="round"/>
<path d="M21.2935 23L23.0268 24" stroke="#FDFFFC" stroke-width="2" stroke-linecap="round" stroke-linejoin="round"/>
<path d="M27.644 26.6667L29.3774 27.6667" stroke="#FDFFFC" stroke-width="2" stroke-linecap="round" stroke-linejoin="round"/>
<path d="M8 23C8 21.3431 9.34315 20 11 20H18V28C18 28.5523 17.5523 29 17 29H8V23Z" fill="#FDFFFC"/>
</svg>
