<svg width="32" height="32" viewBox="0 0 32 32" fill="none" xmlns="http://www.w3.org/2000/svg">
<rect x="4" y="8" width="24" height="21" rx="5" fill="#FDFFFC"/>
<path d="M25.3333 18.3333H22C21.4693 18.3333 20.9613 18.544 20.5853 18.9187C20.2107 19.2933 20 19.8027 20 20.3333C20 20.864 20.2107 21.372 20.5853 21.748C20.96 22.1227 21.4693 22.3333 22 22.3333H23.3333C23.864 22.3333 24.372 22.544 24.748 22.9187C25.1227 23.2933 25.3333 23.8027 25.3333 24.3333C25.3333 24.864 25.1227 25.372 24.748 25.748C24.3733 26.1227 23.864 26.3333 23.3333 26.3333H20" stroke="#18315C" stroke-width="2" stroke-linecap="round" stroke-linejoin="round"/>
<path d="M22.6665 26.3333V27.6667M22.6665 17V18.3333" stroke="#18315C" stroke-width="2" stroke-linecap="round" stroke-linejoin="round"/>
<path d="M17.3335 28H8.00016C7.2935 28 6.61483 27.7187 6.11483 27.2187C5.61483 26.7187 5.3335 26.04 5.3335 25.3333V12C5.3335 11.2933 5.61483 10.6147 6.11483 10.1147C6.61483 9.61468 7.2935 9.33334 8.00016 9.33334H10.6668M26.6668 13.4933V12C26.6668 11.2933 26.3855 10.6147 25.8855 10.1147C25.3855 9.61468 24.7068 9.33334 24.0002 9.33334H21.3335" stroke="#FDFFFC" stroke-width="2" stroke-linecap="round" stroke-linejoin="round"/>
<path d="M21.3335 13.3333V5.33332C21.3335 4.62666 21.0522 3.94799 20.5522 3.44799C20.0522 2.94799 19.3735 2.66666 18.6668 2.66666H13.3335C12.6268 2.66666 11.9482 2.94799 11.4482 3.44799C10.9482 3.94799 10.6668 4.62666 10.6668 5.33332V13.3333M21.3335 13.3333H10.6668H21.3335ZM21.3335 13.3333H22.6668H21.3335ZM10.6668 13.3333H9.3335H10.6668Z" fill="#FDFFFC"/>
<path d="M21.3335 13.3333V5.33332C21.3335 4.62666 21.0522 3.94799 20.5522 3.44799C20.0522 2.94799 19.3735 2.66666 18.6668 2.66666H13.3335C12.6268 2.66666 11.9482 2.94799 11.4482 3.44799C10.9482 3.94799 10.6668 4.62666 10.6668 5.33332V13.3333M21.3335 13.3333H10.6668M21.3335 13.3333H22.6668M10.6668 13.3333H9.3335" stroke="#18315C" stroke-width="2" stroke-linecap="round" stroke-linejoin="round"/>
<path d="M10.6665 18.6667V18.68" stroke="#18315C" stroke-width="2" stroke-linecap="round" stroke-linejoin="round"/>
<path d="M10.6665 22.6667V22.68" stroke="#18315C" stroke-width="2" stroke-linecap="round" stroke-linejoin="round"/>
<path d="M16 18.6533V18.6667" stroke="#18315C" stroke-width="2" stroke-linecap="round" stroke-linejoin="round"/>
<path d="M16 22.6667V22.68" stroke="#18315C" stroke-width="2" stroke-linecap="round" stroke-linejoin="round"/>
</svg>
