<svg width="32" height="32" viewBox="0 0 32 32" fill="none" xmlns="http://www.w3.org/2000/svg">
<path d="M16.0002 13.3334L11.4708 8.74671C10.955 8.22205 10.666 7.51577 10.666 6.78004C10.666 6.04432 10.955 5.33804 11.4708 4.81338C11.724 4.55537 12.0261 4.35041 12.3594 4.21051C12.6928 4.0706 13.0507 3.99854 13.4122 3.99854C13.7737 3.99854 14.1315 4.0706 14.4649 4.21051C14.7982 4.35041 15.1003 4.55537 15.3535 4.81338L16.0002 5.33338L16.6468 4.81338C16.9 4.55537 17.2021 4.35041 17.5354 4.21051C17.8688 4.0706 18.2267 3.99854 18.5882 3.99854C18.9497 3.99854 19.3075 4.0706 19.6409 4.21051C19.9742 4.35041 20.2763 4.55537 20.5295 4.81338C21.0453 5.33804 21.3343 6.04432 21.3343 6.78004C21.3343 7.51577 21.0453 8.22205 20.5295 8.74671L16.0002 13.3334Z" fill="#FDFFFC" stroke="#FDFFFC" stroke-width="2" stroke-linecap="round" stroke-linejoin="round"/>
<path d="M16.0002 18.6667L11.4708 23.2534C10.955 23.778 10.666 24.4843 10.666 25.22C10.666 25.9557 10.955 26.662 11.4708 27.1867C11.724 27.4447 12.0261 27.6496 12.3594 27.7896C12.6928 27.9295 13.0507 28.0015 13.4122 28.0015C13.7737 28.0015 14.1315 27.9295 14.4649 27.7896C14.7982 27.6496 15.1003 27.4447 15.3535 27.1867L16.0002 26.6667L16.6468 27.1867C16.9 27.4447 17.2021 27.6496 17.5354 27.7896C17.8688 27.9295 18.2267 28.0015 18.5882 28.0015C18.9497 28.0015 19.3075 27.9295 19.6409 27.7896C19.9742 27.6496 20.2763 27.4447 20.5295 27.1867C21.0453 26.662 21.3343 25.9557 21.3343 25.22C21.3343 24.4843 21.0453 23.778 20.5295 23.2534L16.0002 18.6667Z" fill="#FDFFFC" stroke="#FDFFFC" stroke-width="2" stroke-linecap="round" stroke-linejoin="round"/>
<path d="M18.6665 16L23.2532 11.4706C23.7778 10.9549 24.4841 10.6658 25.2198 10.6658C25.9556 10.6658 26.6618 10.9549 27.1865 11.4706C27.4445 11.7238 27.6495 12.0259 27.7894 12.3593C27.9293 12.6926 28.0013 13.0505 28.0013 13.412C28.0013 13.7735 27.9293 14.1313 27.7894 14.4647C27.6495 14.798 27.4445 15.1001 27.1865 15.3533L26.6665 16L27.1865 16.6466C27.4445 16.8998 27.6495 17.2019 27.7894 17.5353C27.9293 17.8686 28.0013 18.2265 28.0013 18.588C28.0013 18.9495 27.9293 19.3073 27.7894 19.6407C27.6495 19.974 27.4445 20.2761 27.1865 20.5293C26.6618 21.0451 25.9556 21.3341 25.2198 21.3341C24.4841 21.3341 23.7778 21.0451 23.2532 20.5293L18.6665 16Z" fill="#FDFFFC" stroke="#FDFFFC" stroke-width="2" stroke-linecap="round" stroke-linejoin="round"/>
<path d="M13.3334 16L8.74671 11.4706C8.22205 10.9549 7.51577 10.6658 6.78004 10.6658C6.04432 10.6658 5.33804 10.9549 4.81338 11.4706C4.55537 11.7238 4.35041 12.0259 4.21051 12.3593C4.0706 12.6926 3.99854 13.0505 3.99854 13.412C3.99854 13.7735 4.0706 14.1313 4.21051 14.4647C4.35041 14.798 4.55537 15.1001 4.81338 15.3533L5.33338 16L4.81338 16.6466C4.55537 16.8998 4.35041 17.2019 4.21051 17.5353C4.0706 17.8686 3.99854 18.2265 3.99854 18.588C3.99854 18.9495 4.0706 19.3073 4.21051 19.6407C4.35041 19.974 4.55537 20.2761 4.81338 20.5293C5.33804 21.0451 6.04432 21.3341 6.78004 21.3341C7.51577 21.3341 8.22205 21.0451 8.74671 20.5293L13.3334 16Z" fill="#FDFFFC" stroke="#FDFFFC" stroke-width="2" stroke-linecap="round" stroke-linejoin="round"/>
</svg>
