<svg width="46" height="58" viewBox="0 0 46 58" fill="none" xmlns="http://www.w3.org/2000/svg">
<path d="M22.9999 0.666016L23.3314 0.685849C23.9639 0.760433 24.5527 1.04591 25.0031 1.49621C25.4534 1.94652 25.7388 2.5354 25.8134 3.16785L25.8333 3.49935V14.8327L25.8474 15.2577C25.9488 16.6068 26.5296 17.8752 27.4847 18.8334C28.4398 19.7917 29.7063 20.3766 31.0551 20.4824L31.4999 20.4993H42.8333L43.1648 20.5192C43.7972 20.5938 44.3861 20.8792 44.8364 21.3295C45.2867 21.7799 45.5722 22.3687 45.6468 23.0012L45.6666 23.3327V48.8327C45.6667 51.0008 44.8383 53.087 43.351 54.6644C41.8636 56.2419 39.8296 57.1913 37.6653 57.3185L37.1666 57.3327H8.83325C6.66516 57.3328 4.57896 56.5044 3.00151 55.017C1.42407 53.5297 0.474614 51.4957 0.347419 49.3313L0.333252 48.8327V9.16602C0.333131 6.99792 1.16151 4.91172 2.64889 3.33428C4.13627 1.75683 6.17022 0.807378 8.33459 0.680183L8.83325 0.666016H22.9999Z" fill="#FDFFFC"/>
<path d="M42.8335 14.8332H31.5001L31.4973 3.49707L42.8335 14.8332Z" fill="#FDFFFC"/>
</svg>
