<svg width="58" height="58" viewBox="0 0 58 58" fill="none" xmlns="http://www.w3.org/2000/svg">
<path d="M46.9436 11.9998C49.6991 11.9998 52.3418 13.0945 54.2903 15.0429C56.2388 16.9914 57.3334 19.6341 57.3334 22.3897V46.9433C57.3334 49.6989 56.2388 52.3416 54.2903 54.2901C52.3418 56.2385 49.6991 57.3332 46.9436 57.3332H22.3899C19.6344 57.3332 16.9917 56.2385 15.0432 54.2901C13.0947 52.3416 12.0001 49.6989 12.0001 46.9433V22.3897C12.0001 19.6341 13.0947 16.9914 15.0432 15.0429C16.9917 13.0945 19.6344 11.9998 22.3899 11.9998H46.9436ZM34.6667 23.3332C33.9153 23.3332 33.1946 23.6317 32.6633 24.163C32.1319 24.6944 31.8334 25.4151 31.8334 26.1665V31.8332H26.1667C25.4728 31.8333 24.803 32.088 24.2844 32.5492C23.7658 33.0103 23.4344 33.6458 23.3532 34.335L23.3334 34.6665C23.3334 35.418 23.6319 36.1386 24.1633 36.67C24.6946 37.2013 25.4153 37.4998 26.1667 37.4998H31.8334V43.1665C31.8335 43.8605 32.0883 44.5303 32.5494 45.0489C33.0106 45.5675 33.646 45.8988 34.3352 45.98L34.6667 45.9998C35.4182 45.9998 36.1389 45.7013 36.6702 45.17C37.2016 44.6386 37.5001 43.918 37.5001 43.1665V37.4998H43.1667C43.8607 37.4997 44.5305 37.245 45.0491 36.7838C45.5677 36.3227 45.8991 35.6872 45.9802 34.998L46.0001 34.6665C46.0001 33.9151 45.7016 33.1944 45.1702 32.663C44.6389 32.1317 43.9182 31.8332 43.1667 31.8332H37.5001V26.1665C37.5 25.4725 37.2452 24.8027 36.7841 24.2841C36.3229 23.7655 35.6875 23.4342 34.9982 23.353L34.6667 23.3332ZM37.5001 0.666504C40.5997 0.666504 42.6794 2.17667 44.2264 4.95617C44.4072 5.28137 44.5222 5.639 44.5649 6.00864C44.6075 6.37828 44.5769 6.7527 44.4748 7.11052C44.3727 7.46833 44.2012 7.80254 43.9699 8.09405C43.7387 8.38556 43.4523 8.62867 43.1271 8.8095C42.8019 8.99033 42.4443 9.10534 42.0746 9.14796C41.705 9.19058 41.3306 9.15997 40.9727 9.05789C40.6149 8.95581 40.2807 8.78425 39.9892 8.553C39.6977 8.32176 39.4546 8.03537 39.2737 7.71017C38.6476 6.5825 38.3047 6.33317 37.5001 6.33317H9.16675C7.61408 6.33317 6.33341 7.61384 6.33341 9.1665V37.4942C6.33341 38.4008 6.76975 39.2452 7.48658 39.775L7.76991 39.9592C8.09325 40.1434 8.37714 40.3894 8.60539 40.6833C8.83363 40.9772 9.00175 41.3132 9.10015 41.672C9.19855 42.0309 9.2253 42.4056 9.17887 42.7748C9.13245 43.1441 9.01376 43.5005 8.82958 43.8238C8.6454 44.1472 8.39934 44.4311 8.10545 44.6593C7.81155 44.8876 7.47558 45.0557 7.11671 45.1541C6.75784 45.2525 6.38311 45.2792 6.0139 45.2328C5.6447 45.1864 5.28825 45.0677 4.96491 44.8835C3.66048 44.1417 2.57568 43.0678 1.82074 41.7709C1.06581 40.4741 0.667657 39.0004 0.666748 37.4998V9.1665C0.666748 4.48584 4.48608 0.666504 9.16675 0.666504H37.5001Z" fill="#FDFFFC"/>
</svg>
