<svg width="32" height="32" viewBox="0 0 32 32" fill="none" xmlns="http://www.w3.org/2000/svg">
<path d="M16 0C17.2446 7.56515e-05 18.4466 0.453446 19.3812 1.27535L19.6277 1.50737L20.7446 2.6243C21.0512 2.92884 21.4514 3.12109 21.8808 3.16997L22.0968 3.18277H23.697C25.0047 3.18269 26.2629 3.68294 27.2136 4.58091C28.1642 5.47889 28.7353 6.70654 28.8097 8.01212L28.8177 8.30336V9.90354C28.8177 10.3356 28.9649 10.7564 29.2305 11.0925L29.3745 11.2525L30.4899 12.3694C31.4144 13.2886 31.9534 14.5259 31.9971 15.8288C32.0408 17.1318 31.5859 18.4023 30.7251 19.3814L30.4931 19.6279L29.3761 20.7448C29.0716 21.0513 28.8794 21.4516 28.8305 21.8809L28.8177 22.0969V23.6971C28.8178 25.0048 28.3175 26.263 27.4195 27.2136C26.5215 28.1643 25.2938 28.7353 23.9882 28.8097L23.697 28.8177H22.0968C21.6654 28.8179 21.2465 28.9633 20.9078 29.2306L20.7478 29.3746L19.6309 30.4899C18.7116 31.4144 17.4744 31.9534 16.1714 31.9971C14.8685 32.0408 13.5979 31.5859 12.6188 30.7251L12.3723 30.4931L11.2554 29.3762C10.9488 29.0717 10.5486 28.8794 10.1192 28.8305L9.9032 28.8177H8.30299C6.99527 28.8178 5.73708 28.3176 4.78643 27.4196C3.83577 26.5216 3.2647 25.2939 3.19033 23.9884L3.18232 23.6971V22.0969C3.18218 21.6655 3.03675 21.2467 2.76947 20.908L2.62545 20.748L1.51011 19.6311C0.585636 18.7118 0.0465914 17.4746 0.00288158 16.1717C-0.0408283 14.8687 0.414088 13.5982 1.27488 12.6191L1.50691 12.3726L2.62385 11.2557C2.92839 10.9492 3.12064 10.5489 3.16952 10.1196L3.18232 9.90354V8.30336L3.19033 8.01212C3.26178 6.75669 3.79269 5.57144 4.68186 4.68228C5.57104 3.79312 6.7563 3.26222 8.01176 3.19077L8.30299 3.18277H9.9032C10.3346 3.18262 10.7535 3.03719 11.0922 2.76992L11.2522 2.6259L12.3691 1.51057C12.8449 1.03194 13.4107 0.652084 14.0338 0.392844C14.6569 0.133605 15.3251 9.7733e-05 16 0ZM21.916 11.6525C21.6159 11.3526 21.2089 11.184 20.7846 11.184C20.3603 11.184 19.9534 11.3526 19.6533 11.6525L14.3838 16.9204L12.3147 14.8529L12.1643 14.7201C11.8427 14.4714 11.4384 14.3545 11.0337 14.393C10.629 14.4316 10.2541 14.6227 9.98521 14.9277C9.71632 15.2326 9.57359 15.6285 9.586 16.0348C9.59841 16.4412 9.76503 16.8276 10.052 17.1156L13.2524 20.3159L13.4029 20.4488C13.7107 20.6876 14.0952 20.8059 14.4841 20.7814C14.873 20.757 15.2396 20.5915 15.5151 20.3159L21.916 13.9152L22.0488 13.7648C22.2876 13.4569 22.4059 13.0725 22.3815 12.6836C22.357 12.2947 22.1915 11.9281 21.916 11.6525Z" fill="#FDFFFC"/>
</svg>
