<svg width="32" height="32" viewBox="0 0 32 32" fill="none" xmlns="http://www.w3.org/2000/svg">
<path d="M5 29.67V5.96333C5 5.17741 5.32104 4.42367 5.89249 3.86794C6.46394 3.31221 7.23899 3 8.04714 3H23.2829C24.091 3 24.8661 3.31221 25.4375 3.86794C26.009 4.42367 26.33 5.17741 26.33 5.96333V29.67L21.7593 26.7067L18.7121 29.67L15.665 26.7067L12.6179 29.67L9.57071 26.7067L5 29.67Z" fill="#FDFFFC"/>
<path d="M18.3333 12H15C14.4696 12 13.9609 12.2107 13.5858 12.5858C13.2107 12.9609 13 13.4696 13 14C13 14.5304 13.2107 15.0391 13.5858 15.4142C13.9609 15.7893 14.4696 16 15 16H16.3333C16.8638 16 17.3725 16.2107 17.7475 16.5858C18.1226 16.9609 18.3333 17.4696 18.3333 18C18.3333 18.5304 18.1226 19.0391 17.7475 19.4142C17.3725 19.7893 16.8638 20 16.3333 20H13M15.6667 20V22M15.6667 10V12" stroke="#18315C" stroke-width="2" stroke-linecap="round" stroke-linejoin="round"/>
</svg>
